<?xml version="1.0" encoding="utf-8"?>
<?xml-stylesheet type="text/xsl" href="rss1.xsl"?>
<rss version="2.0" xmlns:atom="http://www.w3.org/2005/Atom" xmlns:content="http://purl.org/rss/1.0/modules/content/" xmlns:dc="http://purl.org/dc/elements/1.1/" xmlns:media="http://search.yahoo.com/mrss/">
<channel>
 <title>Getty</title>
 <link>http://www.gettyimg.com/</link>
 <atom:link href="http://www.gettyimg.com/" rel="self" type="application/rss+xml" />

 
                <item>
                <title><![CDATA[【UPSCALED】Backstreet Boys - Shape Of My Heart (4k Upscale)]]></title>
                <link><![CDATA[https://sharemania.us/threads/backstreet-boys-shape-of-my-heart-4k-upscale.224963/]]></link>
                <description><![CDATA[<article>
<blockquote class="messageText SelectQuoteContainer ugc baseHtml">
<div style="text-align: center"><a href="https://ibb.co/HdLCTRM" target="_blank" class="externalLink" rel="nofollow"><img src="https://i.ibb.co/dgst4X3/Shape-Of-My-Heart-dtv4-mov-thumbs.jpg" class="bbCodeImage LbImage" alt="[​IMG]" data-url="https://i.ibb.co/dgst4X3/Shape-Of-My-Heart-dtv4-mov-thumbs.jpg"></a><br>
<a href="https://ibb.co/sJB2pDp" target="_blank" class="externalLink" rel="nofollow"><img src="https://i.ibb.co/zHkrWLW/Shape-Of-My-Heart-dtv4-mov-snapshot-01-05-668.jpg" class="bbCodeImage LbImage" alt="[​IMG]" data-url="https://i.ibb.co/zHkrWLW/Shape-Of-My-Heart-dtv4-mov-snapshot-01-05-668.jpg"></a><br>
<a href="https://ibb.co/PQnk7dF" target="_blank" class="externalLink" rel="nofollow"><img src="https://i.ibb.co/ZmP9n0G/Shape-Of-My-Heart-dtv4-mov-snapshot-01-20-321.jpg" class="bbCodeImage LbImage" alt="[​IMG]" data-url="https://i.ibb.co/ZmP9n0G/Shape-Of-My-Heart-dtv4-mov-snapshot-01-20-321.jpg"></a><br>
<a href="https://ibb.co/NyYjMjQ" target="_blank" class="externalLink" rel="nofollow"><img src="https://i.ibb.co/G5P2q2B/Shape-Of-My-Heart-dtv4-mov-snapshot-01-24-198.jpg" class="bbCodeImage LbImage" alt="[​IMG]" data-url="https://i.ibb.co/G5P2q2B/Shape-Of-My-Heart-dtv4-mov-snapshot-01-24-198.jpg"></a><br>
<br>
<div class="bbCodeBlock bbCodeVfcHH HiddenContent">
<div class="attribution type">Hidden Content:</div>
<blockquote>You must either reply or click 'Like' to see the hidden information contained here.</blockquote>
</div></div>
<div class="messageTextEndMarker">&nbsp;</div>
</blockquote>
</article>]]></description>
                <author><![CDATA[vjrhymes]]></author>
                </item>

                
                <item>
                <title><![CDATA[【Apple Music】WEB-RiP - Jax Jones &amp; Bebe Rexha - Harder (1080p)]]></title>
                <link><![CDATA[https://sharemania.us/threads/jax-jones-bebe-rexha-harder-1080p.224964/]]></link>
                <description><![CDATA[<article>
<blockquote class="messageText SelectQuoteContainer ugc baseHtml">
<img src="https://i.imgur.com/Dpkyft9.jpg" class="bbCodeImage LbImage" alt="[​IMG]" data-url="https://i.imgur.com/Dpkyft9.jpg" style=""><br>
<br>
<div class="bbCodeBlock bbCodeCode">
<div class="type">Code:</div>
<pre>General
Complete name                  : C:\Users\asus\Desktop\Jax Jones &amp; Bebe Rexha - Harder.mp4
Format                         : MPEG-4
Format profile                 : Base Media
Codec ID                       : isom (isom/iso2/avc1/mp41)
File size                      : 200 MiB
Duration                       : 2 min 51 s
Overall bit rate               : 9 781 kb/s
Frame rate                     : 25.000 FPS
Movie name                     : Harder
Performer                      : Jax Jones &amp; Bebe Rexha
Genre                          : Dance
ContentType                    : Music Video
Recorded date                  : 2019-07-31 07:00:00 UTC
Writing application            : Lavf57.29.101
Copyright                      : A Polydor Records video; ℗ 2019 Universal Music Operations Limited

Video
ID                             : 1
Format                         : AVC
Format/Info                    : Advanced Video Codec
Format profile                 : High@L4.1
Format settings                : CABAC / 4 Ref Frames
Format settings, CABAC         : Yes
Format settings, Reference fra : 4 frames
Codec ID                       : avc1
Codec ID/Info                  : Advanced Video Coding
Duration                       : 2 min 51 s
Bit rate                       : 9 531 kb/s
Width                          : 1 912 pixels
Height                         : 1 072 pixels
Display aspect ratio           : 16:9
Frame rate mode                : Constant
Frame rate                     : 25.000 FPS
Color space                    : YUV
Chroma subsampling             : 4:2:0
Bit depth                      : 8 bits
Scan type                      : Progressive
Bits/(Pixel*Frame)             : 0.186
Stream size                    : 195 MiB (97%)
Color range                    : Limited
Color primaries                : BT.709
Transfer characteristics       : BT.709
Matrix coefficients            : BT.709
Codec configuration box        : avcC

Audio
ID                             : 2
Format                         : AAC LC
Format/Info                    : Advanced Audio Codec Low Complexity
Codec ID                       : mp4a-40-2
Duration                       : 2 min 51 s
Bit rate mode                  : Constant
Bit rate                       : 248 kb/s
Channel(s)                     : 2 channels
Channel layout                 : L R
Sampling rate                  : 48.0 kHz
Frame rate                     : 46.875 FPS (1024 SPF)
Compression mode               : Lossy
Stream size                    : 5.07 MiB (3%)
Default                        : Yes
Alternate group                : 1

</pre>
</div>
<div class="bbCodeBlock bbCodeVfcHH HiddenContent">
<div class="attribution type">Hidden Content:</div>
<blockquote>You must either reply or click 'Like' to see the hidden information contained here.</blockquote>
</div>
<div class="messageTextEndMarker">&nbsp;</div>
</blockquote>
</article>]]></description>
                <author><![CDATA[vitalya3]]></author>
                </item>

                </channel></rss>